<svg xmlns="http://www.w3.org/2000/svg" viewBox="0 0 100 100">
  <!-- CNSA 3D Cube Logo - with padding -->
  <g transform="translate(10, 5) scale(0.8)">
    <!-- Back left tall section (medium blue) -->
    <polygon points="12,28 37,12 37,78 12,94" fill="#0077c8"/>

    <!-- Back left top (dark blue) -->
    <polygon points="12,28 37,12 50,20 25,36" fill="#003876"/>

    <!-- Inner notch left wall (dark blue) -->
    <polygon points="25,36 50,20 50,52 25,68" fill="#0066b3"/>

    <!-- Inner notch bottom (dark navy) -->
    <polygon points="25,68 50,52 62,60 37,76" fill="#003876"/>

    <!-- Front right section - front face (light blue) -->
    <polygon points="50,52 62,60 62,94 50,86" fill="#4db8d9"/>

    <!-- Front right section - side face (sky blue) -->
    <polygon points="62,60 88,44 88,78 62,94" fill="#6dcff6"/>

    <!-- Back right tall section - front (light blue) -->
    <polygon points="50,20 62,12 62,60 50,52" fill="#4db8d9"/>

    <!-- Back right tall section - side (sky blue) -->
    <polygon points="62,12 88,28 88,44 62,60" fill="#6dcff6"/>

    <!-- Back top surface (dark navy) -->
    <polygon points="37,12 62,12 88,28 50,20" fill="#003876"/>
  </g>
</svg>
